HIERARCHY
ROOT Hips
{
	OFFSET 0.000000 100.481300 0.000000
	CHANNELS 6 Xposition Yposition Zposition Xrotation Yrotation Zrotation
	JOINT Spine
	{
		OFFSET -0.279200 12.230698 -2.892100
		CHANNELS 3 Xrotation Yrotation Zrotation
		JOINT Spine1
		{
			OFFSET -0.325700 14.269203 -3.374200
			CHANNELS 3 Xrotation Yrotation Zrotation
			JOINT Spine2
			{
				OFFSET -0.372300 16.307602 -0.352600
				CHANNELS 3 Xrotation Yrotation Zrotation
				JOINT Neck
				{
					OFFSET -0.418800 17.814194 8.416900
					CHANNELS 3 Xrotation Yrotation Zrotation
					JOINT Head
					{
						OFFSET 0.000000 7.031097 3.806800
						CHANNELS 3 Xrotation Yrotation Zrotation
						JOINT HeadTop_End
						{
							OFFSET 0.000000 24.646606 12.978600
							CHANNELS 3 Xrotation Yrotation Zrotation
							End Site
							{
								OFFSET 0.000000 27.854965 0.000000
							}
						}
					}
				}
				JOINT LeftShoulder
				{
					OFFSET 16.952999 14.495407 -7.737500
					CHANNELS 3 Xrotation Yrotation Zrotation
					JOINT LeftArm
					{
						OFFSET 9.308998 -2.777710 0.208600
						CHANNELS 3 Xrotation Yrotation Zrotation
						JOINT LeftForeArm
						{
							OFFSET 29.972298 0.000000 0.000000
							CHANNELS 3 Xrotation Yrotation Zrotation
							JOINT LeftHand
							{
								OFFSET 26.026505 0.000000 0.000000
								CHANNELS 3 Xrotation Yrotation Zrotation
								JOINT LeftHandThumb1
								{
									OFFSET 12.240501 -7.147949 9.207150
									CHANNELS 3 Xrotation Yrotation Zrotation
									JOINT LeftHandThumb2
									{
										OFFSET 4.138618 -2.389435 2.389433
										CHANNELS 3 Xrotation Yrotation Zrotation
										JOINT LeftHandThumb3
										{
											OFFSET 2.726913 -1.574387 1.574386
											CHANNELS 3 Xrotation Yrotation Zrotation
											JOINT LeftHandThumb4
											{
												OFFSET 3.941010 -2.275345 2.275342
												CHANNELS 3 Xrotation Yrotation Zrotation
												End Site
												{
													OFFSET -0.005798 5.087799 0.009903
												}
											}
										}
									}
								}
								JOINT LeftHandIndex1
								{
									OFFSET 24.424698 -1.985611 5.953459
									CHANNELS 3 Xrotation Yrotation Zrotation
									JOINT LeftHandIndex2
									{
										OFFSET 6.426697 0.000000 0.000000
										CHANNELS 3 Xrotation Yrotation Zrotation
										JOINT LeftHandIndex3
										{
											OFFSET 5.337898 0.000000 0.000000
											CHANNELS 3 Xrotation Yrotation Zrotation
											JOINT LeftHandIndex4
											{
												OFFSET 4.409401 0.000000 0.000000
												CHANNELS 3 Xrotation Yrotation Zrotation
												End Site
												{
													OFFSET 0.000000 4.409363 0.014373
												}
											}
										}
									}
								}
								JOINT LeftHandMiddle1
								{
									OFFSET 23.810104 0.000000 0.000000
									CHANNELS 3 Xrotation Yrotation Zrotation
									JOINT LeftHandMiddle2
									{
										OFFSET 7.176498 0.000000 0.000000
										CHANNELS 3 Xrotation Yrotation Zrotation
										JOINT LeftHandMiddle3
										{
											OFFSET 6.774902 0.000000 0.000000
											CHANNELS 3 Xrotation Yrotation Zrotation
											JOINT LeftHandMiddle4
											{
												OFFSET 5.403328 0.000000 0.000000
												CHANNELS 3 Xrotation Yrotation Zrotation
												End Site
												{
													OFFSET -0.027702 5.403244 0.017414
												}
											}
										}
									}
								}
								JOINT LeftHandRing1
								{
									OFFSET 22.908401 -0.839279 -6.020567
									CHANNELS 3 Xrotation Yrotation Zrotation
									JOINT LeftHandRing2
									{
										OFFSET 6.337502 0.000000 0.000000
										CHANNELS 3 Xrotation Yrotation Zrotation
										JOINT LeftHandRing3
										{
											OFFSET 5.779297 0.000000 0.000000
											CHANNELS 3 Xrotation Yrotation Zrotation
											JOINT LeftHandRing4
											{
												OFFSET 4.965698 0.000000 0.000000
												CHANNELS 3 Xrotation Yrotation Zrotation
												End Site
												{
													OFFSET 0.000000 4.965668 0.016186
												}
											}
										}
									}
								}
								JOINT LeftHandPinky1
								{
									OFFSET 20.037003 -1.530319 -10.950146
									CHANNELS 3 Xrotation Yrotation Zrotation
									JOINT LeftHandPinky2
									{
										OFFSET 5.254700 0.000000 0.000000
										CHANNELS 3 Xrotation Yrotation Zrotation
										JOINT LeftHandPinky3
										{
											OFFSET 4.810204 0.000000 0.000000
											CHANNELS 3 Xrotation Yrotation Zrotation
											JOINT LeftHandPinky4
											{
												OFFSET 3.647202 0.000000 0.000000
												CHANNELS 3 Xrotation Yrotation Zrotation
												End Site
												{
													OFFSET 0.000000 3.647186 0.011889
												}
											}
										}
									}
								}
							}
						}
					}
				}
				JOINT RightShoulder
				{
					OFFSET -15.141001 14.495407 -7.737500
					CHANNELS 3 Xrotation Yrotation Zrotation
					JOINT RightArm
					{
						OFFSET -9.308998 -2.777710 0.208500
						CHANNELS 3 Xrotation Yrotation Zrotation
						JOINT RightForeArm
						{
							OFFSET -29.972300 0.000000 0.000000
							CHANNELS 3 Xrotation Yrotation Zrotation
							JOINT RightHand
							{
								OFFSET -26.026505 0.000000 0.000000
								CHANNELS 3 Xrotation Yrotation Zrotation
								JOINT RightHandThumb1
								{
									OFFSET -12.240601 -7.148026 9.207092
									CHANNELS 3 Xrotation Yrotation Zrotation
									JOINT RightHandThumb2
									{
										OFFSET -4.138618 -2.389435 2.389433
										CHANNELS 3 Xrotation Yrotation Zrotation
										JOINT RightHandThumb3
										{
											OFFSET -2.726974 -1.574417 1.574421
											CHANNELS 3 Xrotation Yrotation Zrotation
											JOINT RightHandThumb4
											{
												OFFSET -3.941010 -2.275345 2.275343
												CHANNELS 3 Xrotation Yrotation Zrotation
												End Site
												{
													OFFSET 0.005814 5.087799 0.009927
												}
											}
										}
									}
								}
								JOINT RightHandIndex1
								{
									OFFSET -24.424698 -1.985657 5.953444
									CHANNELS 3 Xrotation Yrotation Zrotation
									JOINT RightHandIndex2
									{
										OFFSET -6.426697 0.000000 0.000000
										CHANNELS 3 Xrotation Yrotation Zrotation
										JOINT RightHandIndex3
										{
											OFFSET -5.337898 0.000000 0.000000
											CHANNELS 3 Xrotation Yrotation Zrotation
											JOINT RightHandIndex4
											{
												OFFSET -4.409401 0.000000 0.000000
												CHANNELS 3 Xrotation Yrotation Zrotation
												End Site
												{
													OFFSET 0.000000 4.409363 0.014408
												}
											}
										}
									}
								}
								JOINT RightHandMiddle1
								{
									OFFSET -23.810097 0.000000 0.000000
									CHANNELS 3 Xrotation Yrotation Zrotation
									JOINT RightHandMiddle2
									{
										OFFSET -7.176498 0.000000 0.000000
										CHANNELS 3 Xrotation Yrotation Zrotation
										JOINT RightHandMiddle3
										{
											OFFSET -6.774902 0.000000 0.000000
											CHANNELS 3 Xrotation Yrotation Zrotation
											JOINT RightHandMiddle4
											{
												OFFSET -5.403328 0.000000 0.000000
												CHANNELS 3 Xrotation Yrotation Zrotation
												End Site
												{
													OFFSET 0.027702 5.403244 0.017457
												}
											}
										}
									}
								}
								JOINT RightHandRing1
								{
									OFFSET -22.908302 -0.839325 -6.020576
									CHANNELS 3 Xrotation Yrotation Zrotation
									JOINT RightHandRing2
									{
										OFFSET -6.337502 0.000000 0.000000
										CHANNELS 3 Xrotation Yrotation Zrotation
										JOINT RightHandRing3
										{
											OFFSET -5.779297 0.000000 0.000000
											CHANNELS 3 Xrotation Yrotation Zrotation
											JOINT RightHandRing4
											{
												OFFSET -4.965698 0.000000 0.000000
												CHANNELS 3 Xrotation Yrotation Zrotation
												End Site
												{
													OFFSET 0.000000 4.965668 0.016226
												}
											}
										}
									}
								}
								JOINT RightHandPinky1
								{
									OFFSET -20.037003 -1.530334 -10.950259
									CHANNELS 3 Xrotation Yrotation Zrotation
									JOINT RightHandPinky2
									{
										OFFSET -5.254700 0.000000 0.000000
										CHANNELS 3 Xrotation Yrotation Zrotation
										JOINT RightHandPinky3
										{
											OFFSET -4.810204 0.000000 0.000000
											CHANNELS 3 Xrotation Yrotation Zrotation
											JOINT RightHandPinky4
											{
												OFFSET -3.647202 0.000000 0.000000
												CHANNELS 3 Xrotation Yrotation Zrotation
												End Site
												{
													OFFSET 0.000000 3.647186 0.011917
												}
											}
										}
									}
								}
							}
						}
					}
				}
			}
		}
	}
	JOINT LeftUpLeg
	{
		OFFSET 15.427100 -6.655098 0.678600
		CHANNELS 3 Xrotation Yrotation Zrotation
		JOINT LeftLeg
		{
			OFFSET 4.081073 -39.591068 13.024000
			CHANNELS 3 Xrotation Yrotation Zrotation
			JOINT LeftFoot
			{
				OFFSET -4.081074 -37.707932 -15.979700
				CHANNELS 3 Xrotation Yrotation Zrotation
				JOINT LeftToeBase
				{
					OFFSET 5.346399 -15.068900 20.645000
					CHANNELS 3 Xrotation Yrotation Zrotation
					JOINT LeftToe_End
					{
						OFFSET 2.754700 0.931300 11.300900
						CHANNELS 3 Xrotation Yrotation Zrotation
						End Site
						{
							OFFSET 0.000000 11.669021 0.000000
						}
					}
				}
			}
		}
	}
	JOINT RightUpLeg
	{
		OFFSET -15.569500 -6.655098 0.678600
		CHANNELS 3 Xrotation Yrotation Zrotation
		JOINT RightLeg
		{
			OFFSET -4.081825 -39.591045 13.023800
			CHANNELS 3 Xrotation Yrotation Zrotation
			JOINT RightFoot
			{
				OFFSET 4.081824 -37.707954 -15.979600
				CHANNELS 3 Xrotation Yrotation Zrotation
				JOINT RightToeBase
				{
					OFFSET -5.346400 -15.068900 20.645000
					CHANNELS 3 Xrotation Yrotation Zrotation
					JOINT RightToe_End
					{
						OFFSET -2.754700 0.931300 11.300900
						CHANNELS 3 Xrotation Yrotation Zrotation
						End Site
						{
							OFFSET 0.000000 11.669021 0.000000
						}
					}
				}
			}
		}
	}
}
MOTION
Frames: 4
Frame Time: 0.033333
1.120073 89.456558 -1.313733 -2.378215 0.204246 -4.290626 14.268555 1.490660 4.737106 -4.344028 0.844258 -0.932464 -4.329081 0.772026 -1.030094 -0.099177 -1.689889 2.622715 -5.841629 -0.460623 -1.540208 0.000000 0.000000 -0.000000 2.370585 2.599473 -1.341545 -3.621680 -8.176740 -74.042153 12.004525 -10.521947 -9.011606 -0.378434 1.905517 11.578229 -4.993205 13.409466 11.309853 3.510403 8.490777 1.848004 3.520638 8.483785 1.852987 0.000001 -0.000002 -0.000000 0.376691 -6.145602 -25.285038 -0.034528 0.056876 -22.183829 0.006573 0.024072 -22.069439 -0.000000 0.000002 -0.000001 -0.682851 -5.541181 -29.068329 -0.005606 -0.005214 -24.675231 -0.009086 -0.001158 -24.545171 0.000001 0.000002 0.000003 -1.915519 -6.193620 -34.198617 0.000997 -0.001542 -28.105370 -0.012520 -0.004673 -27.930913 -0.000000 0.000001 -0.000002 -3.466232 -6.910123 -39.124649 -0.014495 -0.002039 -31.381622 -0.009762 -0.000853 -31.168411 -0.000002 -0.000001 -0.000000 3.460716 0.236096 4.392992 -1.477503 25.831437 70.378454 6.809944 19.847041 4.732060 -19.537635 0.957897 -12.165215 -0.780151 -20.554872 -5.075867 4.541249 -11.070992 -2.314861 -0.011217 0.022299 0.006781 0.000000 0.000002 -0.000000 0.748716 1.485568 23.202854 -0.036699 -0.054997 19.908347 0.000568 -0.021931 19.774581 -0.000003 -0.000001 -0.000002 -0.268007 2.185046 25.525064 0.003171 0.002196 21.457727 -0.005615 -0.004150 21.314883 -0.000001 0.000000 -0.000000 -1.284752 3.638273 29.547870 0.001055 -0.009263 24.164419 -0.007966 -0.006258 23.983668 0.000001 0.000001 0.000001 -2.714491 5.335834 33.797494 0.001272 -0.012035 26.995394 0.003782 -0.011903 26.784339 0.000000 0.000001 0.000002 -26.237337 3.245514 7.676660 55.670847 1.915486 0.154303 -0.400025 0.104815 -7.392870 -15.717324 -1.497601 4.983181 0.000001 0.000001 0.000000 -10.803477 -6.270287 10.226622 30.987359 5.966504 0.497670 -14.130476 2.620417 -11.331749 0.574548 -0.003515 0.675892 -0.000000 0.000000 -0.000000 
0.982096 90.369423 4.556046 -1.827597 -1.353263 -3.422649 13.078906 2.013700 4.356452 -4.140041 1.491465 -1.437748 -4.098227 1.347210 -1.609691 -0.073057 -1.736856 2.232787 -6.049408 -0.614705 -1.629428 0.000000 -0.000000 -0.000000 2.338959 2.865929 -0.802822 -0.858248 -6.740901 -73.943778 14.129287 -9.985784 -9.579573 -0.417858 2.006363 12.092510 -5.003977 13.362782 11.297764 3.547411 8.568782 1.865669 3.515200 8.467777 1.850684 -0.000000 0.000000 0.000002 0.421589 -5.242611 -25.812169 -0.034204 0.057156 -22.539535 0.007952 0.023978 -22.426028 0.000001 0.000000 -0.000002 -0.666381 -5.088771 -29.403022 -0.004393 -0.004286 -24.905470 -0.007900 -0.000248 -24.772650 -0.000000 0.000000 -0.000000 -1.919910 -6.071438 -34.380085 0.001007 -0.000697 -28.230975 -0.011293 -0.004421 -28.053387 -0.000001 -0.000001 0.000000 -3.532631 -7.136769 -39.140498 -0.014501 -0.002024 -31.384630 -0.009733 -0.000851 -31.173957 0.000000 0.000000 0.000000 3.477290 0.189897 4.698672 -1.214360 27.919860 71.342514 5.486731 22.432571 1.546932 -18.960636 0.510697 -10.438271 -0.777093 -20.568843 -5.078503 4.510402 -11.004979 -2.301036 0.039027 -0.079954 -0.021840 0.000001 0.000000 0.000001 0.447281 3.345733 22.577866 -0.037120 -0.054658 19.478861 -0.001118 -0.021951 19.330458 0.000003 -0.000001 0.000001 -0.497381 3.804050 24.857135 0.000862 0.004164 20.994116 -0.007866 -0.002155 20.854862 -0.000003 0.000001 0.000002 -1.549451 5.257731 28.675955 0.001293 -0.005188 23.554785 -0.013734 -0.004677 23.394180 -0.000002 -0.000000 -0.000000 -3.010524 6.924985 32.636915 -0.000817 -0.008490 26.181478 0.000963 -0.008964 26.007636 -0.000004 0.000001 0.000001 -29.980320 3.367379 6.250257 46.597726 2.626923 0.386831 -2.289069 0.096750 -6.337977 -1.550438 -0.112362 2.116002 -0.000000 0.000001 -0.000000 -5.630053 -4.891098 9.301843 28.179933 6.394529 0.753904 -16.666295 2.858393 -11.188326 0.112607 1.480711 1.048077 0.000000 0.000000 -0.000000 
0.767941 91.561996 9.944294 -1.370393 -2.703553 -2.573077 12.074569 2.397231 4.129433 -3.919828 2.101412 -2.089062 -3.841009 1.885321 -2.325824 -0.311990 -1.835893 2.224077 -6.277118 -0.596119 -2.037647 0.000000 -0.000000 -0.000000 2.305135 3.096989 -0.284519 1.831962 -5.128558 -74.226118 16.256072 -9.515819 -10.113675 -0.447310 2.048773 12.572800 -4.993226 13.409482 11.309875 3.510418 8.490846 1.848054 3.520667 8.483842 1.853014 -0.000002 0.000001 -0.000003 0.510045 -3.756423 -26.807009 -0.033517 0.057699 -23.213161 0.010502 0.023802 -23.103786 0.000001 0.000002 0.000002 -0.619430 -3.962560 -30.293327 -0.001355 -0.001859 -25.520976 -0.004775 0.002144 -25.382368 0.000000 -0.000001 0.000001 -1.868403 -5.074211 -35.364397 0.001189 0.003895 -28.916166 -0.009369 -0.002431 -28.725160 0.000000 0.000004 -0.000000 -3.506257 -6.286278 -40.328039 -0.012038 0.001345 -32.211975 -0.006596 0.001955 -31.978150 -0.000000 0.000002 -0.000000 3.493909 0.152732 5.013846 -0.774431 30.386494 72.001908 4.022174 25.045288 -1.447934 -18.677280 0.100986 -8.905388 -0.772290 -20.590495 -5.082548 4.499776 -10.982172 -2.296245 0.028864 -0.056567 -0.016126 -0.000002 0.000000 0.000000 0.321480 4.069676 23.707684 -0.036390 -0.055278 20.240122 0.001683 -0.021922 20.071274 0.000002 -0.000001 0.000000 -0.698998 4.421947 26.070164 0.004972 0.000729 21.809581 -0.003964 -0.005573 21.656498 0.000004 0.000002 0.000001 -1.855200 5.871579 30.097591 0.001002 -0.011536 24.506066 -0.004522 -0.007176 24.334169 0.000003 -0.000000 -0.000000 -3.405630 7.482414 34.201551 0.001897 -0.012976 27.222255 0.004713 -0.012901 27.042971 0.000002 0.000001 -0.000001 -32.038140 3.252364 4.915513 34.615289 3.684803 0.700371 -2.522786 0.157952 -5.654437 2.216605 0.495452 -0.735368 -0.000000 -0.000001 -0.000000 -0.277977 -4.624462 8.214281 24.043675 8.327674 1.003847 -17.472452 3.116488 -10.825385 -0.893957 1.546848 0.695391 0.000000 -0.000000 -0.000000 
0.570783 92.399200 14.860304 -1.328952 -4.074650 -2.062151 11.634652 2.722100 4.059012 -3.766980 2.625736 -2.645737 -3.641276 2.365265 -2.937733 -0.584564 -1.951619 2.503104 -6.868969 -0.372011 -2.838938 -0.000000 0.000000 0.000000 2.274403 3.110396 0.174231 4.330687 -2.691568 -74.729284 18.352925 -8.930259 -10.297764 -0.451596 2.080390 12.644019 -4.989729 13.424426 11.313725 3.510359 8.490811 1.848046 3.494954 8.431796 1.841984 -0.000001 -0.000001 -0.000001 0.544596 -3.578899 -26.254883 -0.033872 0.057400 -22.839403 0.009115 0.023902 -22.738441 0.000000 -0.000000 0.000000 -0.625779 -4.129110 -30.148827 -0.002478 -0.002178 -25.420654 -0.005302 0.001752 -25.282937 -0.000000 -0.000001 0.000001 -2.002514 -5.563543 -35.604472 0.001235 0.004975 -29.067263 -0.011714 -0.001560 -28.874331 -0.000000 -0.000001 0.000000 -3.858875 -7.087473 -40.990072 -0.010821 0.002427 -32.629514 -0.005575 0.003422 -32.397226 -0.000000 -0.000000 0.000000 3.510413 0.198309 5.413578 -0.083682 33.161829 71.445035 3.169942 27.460065 -3.919699 -19.315616 0.086382 -8.492369 -0.764391 -20.626377 -5.089300 4.499594 -10.981796 -2.296156 -0.021593 0.059386 0.012483 0.000000 0.000000 0.000001 0.203156 4.988574 21.679669 -0.037697 -0.054111 18.865071 -0.003457 -0.021984 18.716230 0.000003 -0.000002 -0.000001 -0.642094 4.902740 24.393483 -0.000728 0.005533 20.672630 -0.009410 -0.000803 20.539885 -0.000001 0.000000 0.000001 -1.705015 6.050707 28.529207 0.001330 -0.004454 23.445497 -0.004979 -0.002865 23.292846 0.000000 -0.000001 0.000001 -3.145120 7.346978 32.732059 -0.000662 -0.008741 26.236309 0.001203 -0.009170 26.069372 -0.000001 -0.000000 0.000000 -33.135426 4.297192 4.038676 23.553258 2.421265 0.903822 -3.089323 0.238614 -5.886823 1.540146 1.189714 -1.078805 0.000000 -0.000000 0.000000 4.833108 -4.442432 7.358969 20.255127 10.193073 1.114098 -17.867310 3.357392 -10.325738 -2.280633 1.653279 -0.140935 -0.000000 -0.000000 -0.000000 
